<svg width="20" height="21" viewBox="0 0 20 21" fill="none" xmlns="http://www.w3.org/2000/svg">
<path d="M10 0.895813C11.0701 0.895813 11.9375 1.76326 11.9375 2.83331V8.64588L17.75 8.64587C18.8201 8.64587 19.6875 9.51332 19.6875 10.5834C19.6875 11.6534 18.8201 12.5209 17.75 12.5209L11.9375 12.5209V18.3333C11.9375 19.4034 11.0701 20.2708 10 20.2708C8.92995 20.2708 8.0625 19.4034 8.0625 18.3333V12.5209H2.25C1.17995 12.5209 0.3125 11.6534 0.3125 10.5834C0.3125 9.51333 1.17995 8.64588 2.25 8.64588H8.0625V2.83331C8.0625 1.76326 8.92995 0.895813 10 0.895813Z" fill="#1A1528"/>
</svg>
