<svg width="28" height="28" viewBox="0 0 28 28" fill="none" xmlns="http://www.w3.org/2000/svg">
<path d="M12.7096 25.6668H15.2904C19.3114 25.6668 21.3219 25.6668 22.6928 24.4864C24.0637 23.3059 24.348 21.3299 24.9167 17.3779L25.2419 15.1177C25.6846 12.0411 25.906 10.5028 25.2754 9.1876C24.6449 7.87236 23.3028 7.07289 20.6186 5.47394L19.003 4.51151C16.5655 3.0595 15.3467 2.3335 14 2.3335C12.6533 2.3335 11.4346 3.0595 8.99706 4.51151L8.99705 4.51151L7.38141 5.47394L7.3814 5.47395C4.69723 7.07289 3.35514 7.87237 2.7246 9.1876C2.09407 10.5028 2.31541 12.0411 2.75809 15.1177L3.08332 17.3779C3.65197 21.3299 3.9363 23.3059 5.30721 24.4864C6.67812 25.6668 8.68861 25.6668 12.7096 25.6668Z" fill="#FFCE48"/>
<path d="M11.0211 17.9631C10.6329 17.6754 10.0849 17.7568 9.79711 18.145C9.50934 18.5332 9.59078 19.0813 9.97901 19.369C11.1135 20.2099 12.5009 20.7077 14.0001 20.7077C15.4992 20.7077 16.8866 20.2099 18.0211 19.369C18.4093 19.0813 18.4908 18.5332 18.203 18.145C17.9152 17.7568 17.3672 17.6754 16.979 17.9631C16.1293 18.593 15.1036 18.9577 14.0001 18.9577C12.8965 18.9577 11.8708 18.593 11.0211 17.9631Z" fill="white"/>
</svg>
