<svg width="52" height="52" viewBox="0 0 52 52" fill="none" xmlns="http://www.w3.org/2000/svg">
<path d="M28.8574 51.8334H23.1427C14.2391 51.8334 9.78726 51.8334 6.75168 49.2195C3.71609 46.6056 3.08651 42.2302 1.82735 33.4793L1.10721 28.4745C0.126975 21.6621 -0.36314 18.2559 1.03305 15.3436C2.42924 12.4313 5.40101 10.6611 11.3445 7.12053L14.922 4.98944C20.3194 1.77427 23.0181 0.166687 26 0.166687C28.982 0.166687 31.6807 1.77427 37.078 4.98943L40.6555 7.12053C46.599 10.6611 49.5708 12.4313 50.967 15.3436C52.3632 18.2559 51.8731 21.6621 50.8928 28.4745L50.1727 33.4794C48.9135 42.2302 48.284 46.6056 45.2484 49.2195C42.2128 51.8334 37.761 51.8334 28.8574 51.8334Z" fill="#FFCE48"/>
</svg>
