<svg width="31" height="34" viewBox="0 0 31 34" fill="none" xmlns="http://www.w3.org/2000/svg">
<path fill-rule="evenodd" clip-rule="evenodd" d="M1.37919 5.72057C0.75 6.61702 0.75 9.28167 0.75 14.611V17.2355C0.75 26.6323 7.81494 31.1924 12.2476 33.1287C13.45 33.6539 14.0512 33.9166 15.75 33.9166C17.4488 33.9166 18.05 33.6539 19.2524 33.1287C23.6851 31.1924 30.75 26.6323 30.75 17.2355V14.611C30.75 9.28167 30.75 6.61702 30.1208 5.72057C29.4916 4.82412 26.9861 3.96648 21.9751 2.25121L21.0205 1.92442C18.4084 1.03029 17.1023 0.583221 15.75 0.583221C14.3977 0.583221 13.0916 1.03029 10.4795 1.92442L9.52485 2.25121C4.51387 3.96648 2.00839 4.82412 1.37919 5.72057ZM20.8491 14.7491C21.3089 14.2341 21.2641 13.4439 20.7492 12.9841C20.2342 12.5243 19.444 12.5691 18.9842 13.084L13.9643 18.7064L12.5158 17.084C12.056 16.5691 11.2658 16.5243 10.7508 16.9841C10.2359 17.4439 10.1911 18.2341 10.6509 18.7491L13.0319 21.4157C13.269 21.6814 13.6082 21.8332 13.9643 21.8332C14.3204 21.8332 14.6596 21.6814 14.8967 21.4157L20.8491 14.7491Z" fill="#1A1528"/>
</svg>
